<svg width="150" height="150" viewBox="0 0 150 150" fill="none" xmlns="http://www.w3.org/2000/svg">
<rect width="150" height="150" fill="#0A1439"/>
<path d="M36.7865 61.3253H34.5567C27.1375 61.3253 23.4292 59.1721 23.4292 54.8683V54.6237H31.0773C31.2066 56.3361 32.7281 57.1936 35.6366 57.1936H35.8574C36.7892 57.1936 37.5647 57.1479 38.1868 57.0592C38.8089 56.9705 39.264 56.8387 39.5603 56.6667C39.8538 56.4947 40.0531 56.3172 40.1608 56.1291C40.2658 55.9409 40.3197 55.7258 40.3197 55.4812V55.457C40.3197 55.1156 40.2335 54.8414 40.0612 54.6371C39.8888 54.4328 39.4822 54.2527 38.8358 54.0995C38.1895 53.9436 37.2551 53.8522 36.0297 53.8172L32.6473 53.7205C26.6796 53.5538 23.6985 51.7285 23.6985 48.2366V48.0162C23.6985 47.3791 23.7874 46.8038 23.9678 46.2904C24.1482 45.7769 24.4741 45.2742 24.9481 44.785C25.422 44.2957 26.0414 43.8871 26.8116 43.5619C27.5791 43.2366 28.589 42.9705 29.8385 42.7662C31.0881 42.5646 32.5396 42.4624 34.1904 42.4624H36.3717C43.7586 42.4624 47.4507 44.3791 47.4507 48.2124V48.4086H39.878C39.7299 47.121 38.2595 46.4758 35.4669 46.4758H35.2218C34.0773 46.4758 33.1967 46.5457 32.5746 46.6828C31.9525 46.8226 31.5701 46.9758 31.422 47.1479C31.2739 47.3199 31.2012 47.543 31.2012 47.8199V47.8441C31.2012 48.121 31.2874 48.3495 31.4597 48.5296C31.6321 48.7097 32.0199 48.8683 32.6231 49.0054C33.2263 49.1452 34.0773 49.2205 35.1734 49.2366L38.4588 49.3092C41.9059 49.406 44.3726 49.8844 45.8619 50.7393C47.3484 51.5968 48.0917 52.9463 48.0917 54.7877V55.1291C48.0917 55.7984 48.0109 56.406 47.8466 56.9517C47.6823 57.4973 47.3565 58.0538 46.8664 58.6156C46.3762 59.1775 45.7272 59.6506 44.9166 60.035C44.1087 60.4194 43.0127 60.7285 41.6312 60.9651C40.2497 61.2017 38.6366 61.3199 36.7892 61.3199L36.7865 61.3253Z" fill="#FEE900"/>
<path d="M62.351 42.4382H63.4525C65.071 42.4382 66.544 42.5484 67.8771 42.7688C69.2074 42.9892 70.3277 43.2742 71.2352 43.6263C72.1428 43.9785 72.9345 44.4086 73.6132 44.922C74.2918 45.4355 74.825 45.9543 75.2182 46.4758C75.6114 46.9973 75.9237 47.5699 76.1607 48.1882C76.3977 48.8091 76.5539 49.371 76.6266 49.8763C76.6993 50.3817 76.737 50.9113 76.737 51.4677V52.2016C76.737 52.7554 76.6993 53.2876 76.6266 53.793C76.5539 54.2984 76.3977 54.8656 76.1607 55.4946C75.9237 56.1237 75.614 56.7016 75.229 57.2312C74.8439 57.7608 74.3106 58.2876 73.6239 58.8091C72.9372 59.3306 72.1455 59.7715 71.246 60.129C70.3465 60.4892 69.2316 60.7769 67.9013 60.9973C66.5683 61.2177 65.0871 61.328 63.4525 61.328H62.351C60.7164 61.328 59.2325 61.2177 57.9022 60.9973C56.5692 60.7769 55.4516 60.4866 54.544 60.129C53.6365 59.7715 52.8394 59.3306 52.1553 58.8091C51.4686 58.2876 50.9327 57.7608 50.5503 57.2312C50.1652 56.7016 49.8555 56.121 49.6185 55.4946C49.3816 54.8656 49.2254 54.3011 49.1526 53.793C49.0799 53.2876 49.0422 52.7581 49.0422 52.2016V51.4677C49.0422 50.914 49.0799 50.3844 49.1526 49.8763C49.2254 49.371 49.3816 48.8091 49.6185 48.1882C49.8555 47.5672 50.1652 46.9973 50.5503 46.4758C50.9327 45.9543 51.4686 45.4355 52.1553 44.922C52.8421 44.4086 53.6392 43.9758 54.544 43.6263C55.4516 43.2769 56.5692 42.9892 57.9022 42.7688C59.2325 42.5484 60.7164 42.4382 62.351 42.4382ZM69.5333 51.9812V51.6398C69.5333 51.1021 69.4363 50.5995 69.2397 50.1344C69.0431 49.6694 68.7119 49.2177 68.246 48.7769C67.7801 48.336 67.0907 47.9866 66.1751 47.7258C65.2595 47.4651 64.1661 47.3333 62.8896 47.3333C61.6132 47.3333 60.4713 47.4651 59.5557 47.7258C58.6401 47.9866 57.9534 48.3387 57.4956 48.7769C57.0377 49.2177 56.7146 49.6694 56.5288 50.1344C56.3403 50.5995 56.246 51.1021 56.246 51.6398V51.9328C56.246 52.4704 56.343 52.9812 56.5395 53.4624C56.7361 53.9435 57.062 54.4167 57.5198 54.8817C57.9776 55.3468 58.667 55.7177 59.5907 55.9946C60.5144 56.2715 61.6132 56.4113 62.8869 56.4113C64.1607 56.4113 65.2595 56.2769 66.1832 56.0081C67.1069 55.7392 67.7963 55.3763 68.2541 54.9194C68.7119 54.4624 69.0377 53.9946 69.2343 53.5134C69.4309 53.0323 69.5279 52.5215 69.5279 51.9839L69.5333 51.9812Z" fill="#FEE900"/>
<path d="M23.4292 65.8602H31.2227L41.8116 76.2097V65.8602H48.7245V84.0645H41.7631L30.3421 73.0296V84.0645H23.4292V65.8602Z" fill="#FEE900"/>
<path d="M59.386 84.0645V77.2151L49.4084 65.8602H57.7433L63.0619 72.1479L68.4776 65.8602H76.1014L66.3474 77.2608V84.0618H59.386V84.0645Z" fill="#FEE900"/>
<path d="M91.1499 84.0645L89.728 81.129H79.3115L77.9138 84.0645H70.8555L79.8743 65.8602H89.2379L98.7738 84.0618H91.1499V84.0645ZM87.4982 76.578L84.4336 70.3145L81.4443 76.578H87.4982Z" fill="#FEE900"/>
<path d="M37.2766 107.599H36.3206C34.1796 107.599 32.3053 107.387 30.6949 106.962C29.0845 106.538 27.8323 106.013 26.9328 105.384C26.0333 104.755 25.3062 104.011 24.7515 103.145C24.1967 102.28 23.8358 101.481 23.6743 100.747C23.51 100.013 23.4292 99.2473 23.4292 98.4462V97.7365C23.4292 96.922 23.5073 96.1559 23.6608 95.4355C23.817 94.7177 24.1644 93.9301 24.703 93.0752C25.2416 92.2204 25.9579 91.4838 26.8466 90.8736C27.738 90.2607 28.9956 89.7473 30.6222 89.3333C32.2488 88.9166 34.1473 88.7097 36.3206 88.7097H37.2766C38.7954 88.7097 40.1904 88.8064 41.4561 89.0027C42.7218 89.1989 43.7856 89.4516 44.642 89.7607C45.4983 90.0699 46.2604 90.4408 46.9202 90.8736C47.5827 91.3064 48.0998 91.7419 48.4768 92.1828C48.8538 92.6236 49.1581 93.0914 49.3951 93.5887C49.6321 94.086 49.7883 94.5295 49.861 94.922C49.9337 95.3145 49.9714 95.6962 49.9714 96.0726V96.3898H42.7407C42.1859 94.5295 40.1823 93.5994 36.7353 93.5994C32.6662 93.5994 30.633 95.0188 30.633 97.8575V98.1505C30.633 98.6881 30.7272 99.2016 30.9157 99.6908C31.1042 100.18 31.4139 100.661 31.8475 101.134C32.2811 101.608 32.9166 101.984 33.7595 102.261C34.5998 102.538 35.6016 102.677 36.7622 102.677C37.7748 102.677 38.6662 102.583 39.4337 102.395C40.2012 102.207 40.7829 102 41.1734 101.771C41.5665 101.543 41.8924 101.258 42.1536 100.914C42.4148 100.573 42.571 100.328 42.6195 100.18C42.668 100.032 42.7165 99.8709 42.7676 99.6908H49.9741V100.083C49.9741 100.637 49.8933 101.204 49.729 101.785C49.5647 102.363 49.2066 103.016 48.6518 103.742C48.0971 104.468 47.3807 105.105 46.5082 105.651C45.633 106.196 44.3996 106.659 42.808 107.032C41.2138 107.409 39.3717 107.594 37.282 107.594L37.2766 107.599Z" fill="#FEE900"/>
<path d="M51.6382 107.258V89.0538H58.5996V95.4893H69.9963V89.0538H76.9335V107.258H69.9963V100.333H58.5996V107.258H51.6382Z" fill="#FEE900"/>
<path d="M79.2874 89.0538H87.0809L97.6698 99.4032V89.0538H104.583V107.258H97.6213L86.2003 96.2231V107.258H79.2874V89.0538Z" fill="#FEE900"/>
<path d="M119.631 88.7124H120.735C122.354 88.7124 123.827 88.8226 125.16 89.043C126.493 89.2635 127.61 89.5484 128.518 89.9006C129.425 90.2527 130.217 90.6828 130.896 91.1963C131.575 91.7097 132.108 92.2285 132.501 92.75C132.894 93.2715 133.206 93.8441 133.443 94.4624C133.68 95.0834 133.837 95.6452 133.909 96.1506C133.982 96.656 134.02 97.1855 134.02 97.742V98.4758C134.02 99.0296 133.982 99.5619 133.909 100.067C133.837 100.573 133.68 101.14 133.443 101.769C133.206 102.398 132.897 102.976 132.512 103.505C132.127 104.035 131.593 104.562 130.907 105.083C130.22 105.605 129.428 106.046 128.529 106.403C127.629 106.763 126.514 107.051 125.184 107.272C123.851 107.492 122.37 107.602 120.735 107.602H119.631C117.996 107.602 116.513 107.492 115.182 107.272C113.849 107.051 112.732 106.761 111.824 106.403C110.917 106.046 110.119 105.605 109.435 105.083C108.749 104.562 108.213 104.035 107.83 103.505C107.445 102.976 107.136 102.395 106.899 101.769C106.662 101.14 106.505 100.575 106.433 100.067C106.36 99.5619 106.322 99.0323 106.322 98.4758V97.742C106.322 97.1882 106.36 96.6586 106.433 96.1506C106.505 95.6452 106.662 95.0834 106.899 94.4624C107.136 93.8414 107.445 93.2715 107.83 92.75C108.213 92.2285 108.749 91.7097 109.435 91.1963C110.122 90.6828 110.919 90.25 111.824 89.9006C112.732 89.5511 113.849 89.2635 115.182 89.043C116.513 88.8226 117.996 88.7124 119.631 88.7124ZM126.813 98.2554V97.914C126.813 97.3764 126.716 96.8737 126.52 96.4086C126.323 95.9436 125.992 95.492 125.526 95.0511C125.06 94.6103 124.371 94.2608 123.455 94C122.539 93.7393 121.446 93.6076 120.17 93.6076C118.893 93.6076 117.751 93.7393 116.836 94C115.92 94.2608 115.233 94.6129 114.776 95.0511C114.318 95.492 113.995 95.9436 113.809 96.4086C113.62 96.8737 113.526 97.3764 113.526 97.914V98.207C113.526 98.7447 113.623 99.2554 113.82 99.7366C114.016 100.218 114.342 100.691 114.8 101.156C115.258 101.621 115.947 101.992 116.871 102.269C117.794 102.546 118.893 102.686 120.167 102.686C121.441 102.686 122.54 102.551 123.463 102.282C124.387 102.013 125.076 101.651 125.534 101.194C125.992 100.737 126.318 100.269 126.514 99.7877C126.711 99.3065 126.808 98.7957 126.808 98.2581L126.813 98.2554Z" fill="#FEE900"/>
<path d="M96.1393 55.1486C98.5421 55.1486 100.49 53.2043 100.49 50.8058C100.49 48.4074 98.5421 46.4631 96.1393 46.4631C93.7366 46.4631 91.7888 48.4074 91.7888 50.8058C91.7888 53.2043 93.7366 55.1486 96.1393 55.1486Z" fill="#FEE900"/>
<path d="M96.1395 42.4731L95.0396 45.438H97.2407L96.1395 42.4731Z" fill="#FEE900"/>
<path d="M90.2368 44.9137L91.5594 47.7881L93.1164 46.2339L90.2368 44.9137Z" fill="#FEE900"/>
<path d="M87.7917 50.8058L90.762 51.905V49.7078L87.7917 50.8058Z" fill="#FEE900"/>
<path d="M90.2368 56.6992L93.1164 55.379L91.5594 53.8248L90.2368 56.6992Z" fill="#FEE900"/>
<path d="M96.1395 59.1398L97.2407 56.1749H95.0396L96.1395 59.1398Z" fill="#FEE900"/>
<path d="M102.043 56.6992L100.721 53.8248L99.1638 55.379L102.043 56.6992Z" fill="#FEE900"/>
<path d="M104.488 50.8058L101.518 49.7078V51.905L104.488 50.8058Z" fill="#FEE900"/>
<path d="M102.043 44.9137L99.1638 46.2339L100.721 47.7881L102.043 44.9137Z" fill="#FEE900"/>
</svg>
