<svg width="268" height="36" viewBox="0 0 268 36" fill="none" xmlns="http://www.w3.org/2000/svg">
<g clip-path="url(#clip0_51_149)">
<path d="M14.066 35.8845H11.7179C3.90502 35.8845 0 33.613 0 29.0727V28.8147H8.05392C8.19004 30.6211 9.79232 31.5258 12.8551 31.5258H13.0876C14.0688 31.5258 14.8856 31.4776 15.5407 31.384C16.1958 31.2904 16.675 31.1514 16.987 30.9699C17.2961 30.7884 17.5059 30.6013 17.6194 30.4028C17.73 30.2042 17.7867 29.9774 17.7867 29.7193V29.6938C17.7867 29.3336 17.6959 29.0444 17.5144 28.8288C17.3329 28.6133 16.9047 28.4233 16.2241 28.2617C15.5435 28.0972 14.5594 28.0008 13.2691 27.9639L9.70724 27.8618C3.42292 27.686 0.283589 25.7604 0.283589 22.0766V21.844C0.283589 21.1719 0.377173 20.5651 0.567178 20.0234C0.757182 19.4817 1.10032 18.9514 1.59944 18.4353C2.09856 17.9192 2.75081 17.4881 3.56188 17.145C4.3701 16.8018 5.43356 16.5211 6.74941 16.3056C8.06526 16.0929 9.59381 15.9851 11.3322 15.9851H13.6293C21.4081 15.9851 25.2961 18.0071 25.2961 22.0511V22.2581H17.3216C17.1656 20.8997 15.6172 20.2191 12.6764 20.2191H12.4184C11.2131 20.2191 10.2858 20.2928 9.63067 20.4374C8.97558 20.5849 8.57289 20.7466 8.41691 20.928C8.26094 21.1095 8.18437 21.3449 8.18437 21.637V21.6625C8.18437 21.9546 8.27512 22.1957 8.45662 22.3857C8.63811 22.5757 9.04648 22.743 9.68172 22.8876C10.317 23.0351 11.2131 23.1145 12.3673 23.1315L15.8271 23.2081C19.457 23.3102 22.0547 23.815 23.6229 24.7168C25.1884 25.6214 25.9711 27.0451 25.9711 28.9876V29.3478C25.9711 30.0539 25.886 30.6948 25.713 31.2705C25.54 31.8462 25.1969 32.4332 24.6807 33.0259C24.1646 33.6186 23.4811 34.1178 22.6275 34.5233C21.7768 34.9288 20.6226 35.255 19.1678 35.5045C17.713 35.7541 16.0143 35.8789 14.0688 35.8789L14.066 35.8845Z" fill="white"/>
<path d="M40.9871 15.9596H42.147C43.8514 15.9596 45.4026 16.0758 46.8064 16.3084C48.2073 16.5409 49.387 16.8415 50.3427 17.213C51.2984 17.5845 52.1322 18.0383 52.8468 18.5799C53.5615 19.1216 54.123 19.6689 54.537 20.2191C54.951 20.7692 55.28 21.3733 55.5296 22.0255C55.7791 22.6806 55.9436 23.2733 56.0202 23.8065C56.0967 24.3396 56.1364 24.8983 56.1364 25.4853V26.2595C56.1364 26.8437 56.0967 27.4052 56.0202 27.9384C55.9436 28.4715 55.7791 29.0699 55.5296 29.7335C55.28 30.3971 54.9539 31.0068 54.5483 31.5655C54.1428 32.1241 53.5813 32.68 52.8582 33.2301C52.135 33.7803 51.3012 34.2454 50.3541 34.6225C49.4069 35.0026 48.2328 35.306 46.8319 35.5385C45.4281 35.7711 43.8684 35.8874 42.147 35.8874H40.9871C39.2657 35.8874 37.7032 35.7711 36.3022 35.5385C34.8985 35.306 33.7216 34.9997 32.7659 34.6225C31.8102 34.2454 30.9708 33.7803 30.2505 33.2301C29.5273 32.68 28.963 32.1241 28.5603 31.5655C28.1547 31.0068 27.8286 30.3942 27.579 29.7335C27.3295 29.0699 27.165 28.4743 27.0884 27.9384C27.0119 27.4052 26.9722 26.8465 26.9722 26.2595V25.4853C26.9722 24.9011 27.0119 24.3425 27.0884 23.8065C27.165 23.2733 27.3295 22.6806 27.579 22.0255C27.8286 21.3704 28.1547 20.7692 28.5603 20.2191C28.963 19.6689 29.5273 19.1216 30.2505 18.5799C30.9736 18.0383 31.813 17.5817 32.7659 17.213C33.7216 16.8444 34.8985 16.5409 36.3022 16.3084C37.7032 16.0758 39.2657 15.9596 40.9871 15.9596ZM48.5504 26.027V25.6668C48.5504 25.0996 48.4483 24.5693 48.2413 24.0787C48.0343 23.5881 47.6855 23.1117 47.1949 22.6466C46.7043 22.1815 45.9783 21.8128 45.0141 21.5378C44.0499 21.2627 42.8985 21.1237 41.5543 21.1237C40.2101 21.1237 39.0077 21.2627 38.0435 21.5378C37.0793 21.8128 36.3561 22.1843 35.874 22.6466C35.3919 23.1117 35.0516 23.5881 34.8559 24.0787C34.6574 24.5693 34.5582 25.0996 34.5582 25.6668V25.9759C34.5582 26.5431 34.6603 27.0819 34.8673 27.5895C35.0743 28.0972 35.4174 28.5963 35.8995 29.0869C36.3816 29.5775 37.1076 29.9689 38.0803 30.261C39.053 30.5531 40.2101 30.7005 41.5515 30.7005C42.8928 30.7005 44.0499 30.5587 45.0226 30.2751C45.9953 29.9915 46.7213 29.6087 47.2034 29.1266C47.6855 28.6445 48.0286 28.1511 48.2357 27.6434C48.4427 27.1358 48.5448 26.597 48.5448 26.0298L48.5504 26.027Z" fill="white"/>
<path d="M57.9712 16.3197H66.1783L77.329 27.2379V16.3197H84.6087V35.5244H77.2779L65.2509 23.883V35.5244H57.9712V16.3197Z" fill="white"/>
<path d="M95.8361 35.5244V28.2985L85.3291 16.3197H94.1062L99.707 22.9529L105.41 16.3197H113.438L103.167 28.3467V35.5215H95.8361V35.5244Z" fill="white"/>
<path d="M129.285 35.5244L127.788 32.4276H116.819L115.347 35.5244H107.914L117.411 16.3197H127.272L137.314 35.5215H129.285V35.5244ZM125.44 27.6264L122.213 21.0188L119.065 27.6264H125.44Z" fill="white"/>
<path d="M150.296 35.8845H149.29C147.035 35.8845 145.061 35.6605 143.366 35.2124C141.67 34.7643 140.351 34.2113 139.404 33.5478C138.457 32.8842 137.691 32.0986 137.107 31.1855C136.523 30.2723 136.143 29.43 135.972 28.6558C135.799 27.8816 135.714 27.0734 135.714 26.2283V25.4796C135.714 24.6204 135.797 23.8121 135.958 23.0521C136.123 22.2949 136.489 21.464 137.056 20.5622C137.623 19.6604 138.377 18.8834 139.313 18.2396C140.252 17.593 141.576 17.0514 143.289 16.6147C145.002 16.1751 147.001 15.9567 149.29 15.9567H150.296C151.896 15.9567 153.365 16.0588 154.698 16.2658C156.031 16.4729 157.151 16.7394 158.053 17.0656C158.954 17.3917 159.757 17.783 160.452 18.2396C161.149 18.6962 161.694 19.1556 162.091 19.6207C162.488 20.0858 162.808 20.5792 163.058 21.1039C163.308 21.6285 163.472 22.0964 163.549 22.5105C163.625 22.9245 163.665 23.3272 163.665 23.7242V24.0589H156.051C155.466 22.0964 153.356 21.1152 149.726 21.1152C145.441 21.1152 143.3 22.6126 143.3 25.6073V25.9164C143.3 26.4836 143.4 27.0252 143.598 27.5413C143.797 28.0575 144.123 28.5651 144.579 29.0642C145.036 29.5633 145.705 29.9604 146.593 30.2524C147.478 30.5445 148.533 30.692 149.755 30.692C150.821 30.692 151.76 30.5928 152.568 30.3942C153.376 30.1957 153.989 29.9774 154.4 29.7363C154.814 29.4953 155.157 29.1947 155.432 28.8317C155.707 28.4715 155.872 28.2134 155.923 28.0575C155.974 27.9015 156.025 27.7313 156.079 27.5413H163.668V27.9554C163.668 28.5396 163.583 29.1379 163.41 29.7505C163.237 30.3602 162.859 31.0493 162.275 31.815C161.691 32.5807 160.937 33.2528 160.018 33.8285C159.096 34.4042 157.797 34.892 156.121 35.2862C154.443 35.6832 152.503 35.8789 150.302 35.8789L150.296 35.8845Z" fill="white"/>
<path d="M165.42 35.5244V16.3197H172.751V23.1088H184.752V16.3197H192.058V35.5244H184.752V28.2191H172.751V35.5244H165.42Z" fill="white"/>
<path d="M194.536 16.3197H202.743L213.894 27.2379V16.3197H221.174V35.5244H213.843L201.816 23.883V35.5244H194.536V16.3197Z" fill="white"/>
<path d="M237.021 15.9596H238.183C239.888 15.9596 241.439 16.0758 242.843 16.3084C244.246 16.5409 245.423 16.8415 246.379 17.213C247.335 17.5845 248.168 18.0383 248.883 18.5799C249.598 19.1216 250.159 19.6689 250.573 20.2191C250.987 20.7692 251.316 21.3733 251.566 22.0255C251.815 22.6806 251.98 23.2733 252.056 23.8065C252.133 24.3396 252.173 24.8983 252.173 25.4853V26.2595C252.173 26.8437 252.133 27.4052 252.056 27.9384C251.98 28.4715 251.815 29.0699 251.566 29.7335C251.316 30.3971 250.99 31.0068 250.585 31.5655C250.179 32.1241 249.618 32.68 248.894 33.2301C248.171 33.7803 247.338 34.2454 246.39 34.6225C245.443 35.0026 244.269 35.306 242.868 35.5385C241.464 35.7711 239.905 35.8874 238.183 35.8874H237.021C235.299 35.8874 233.737 35.7711 232.336 35.5385C230.932 35.306 229.755 34.9997 228.799 34.6225C227.844 34.2454 227.004 33.7803 226.284 33.2301C225.561 32.68 224.996 32.1241 224.594 31.5655C224.188 31.0068 223.862 30.3942 223.612 29.7335C223.363 29.0699 223.198 28.4743 223.122 27.9384C223.045 27.4052 223.006 26.8465 223.006 26.2595V25.4853C223.006 24.9011 223.045 24.3425 223.122 23.8065C223.198 23.2733 223.363 22.6806 223.612 22.0255C223.862 21.3704 224.188 20.7692 224.594 20.2191C224.996 19.6689 225.561 19.1216 226.284 18.5799C227.007 18.0383 227.846 17.5817 228.799 17.213C229.755 16.8444 230.932 16.5409 232.336 16.3084C233.737 16.0758 235.299 15.9596 237.021 15.9596ZM244.584 26.027V25.6668C244.584 25.0996 244.482 24.5693 244.275 24.0787C244.068 23.5881 243.719 23.1117 243.228 22.6466C242.738 22.1815 242.012 21.8128 241.048 21.5378C240.083 21.2627 238.932 21.1237 237.588 21.1237C236.244 21.1237 235.041 21.2627 234.077 21.5378C233.113 21.8128 232.39 22.1843 231.907 22.6466C231.425 23.1117 231.085 23.5881 230.889 24.0787C230.691 24.5693 230.592 25.0996 230.592 25.6668V25.9759C230.592 26.5431 230.694 27.0819 230.901 27.5895C231.108 28.0972 231.451 28.5963 231.933 29.0869C232.415 29.5775 233.141 29.9689 234.114 30.261C235.086 30.5531 236.244 30.7005 237.585 30.7005C238.926 30.7005 240.083 30.5587 241.056 30.2751C242.029 29.9915 242.755 29.6087 243.237 29.1266C243.719 28.6445 244.062 28.1511 244.269 27.6434C244.476 27.1358 244.578 26.597 244.578 26.0298L244.584 26.027Z" fill="white"/>
</g>
<g clip-path="url(#clip1_51_149)">
<path d="M258.349 13.4875C260.879 13.4875 262.93 11.4363 262.93 8.9061C262.93 6.3759 260.879 4.32476 258.349 4.32476C255.818 4.32476 253.767 6.3759 253.767 8.9061C253.767 11.4363 255.818 13.4875 258.349 13.4875Z" fill="#FEE900"/>
<path d="M258.349 0.115475L257.19 3.24329H259.508L258.349 0.115475Z" fill="#FEE900"/>
<path d="M252.133 2.69016L253.526 5.72248L255.165 4.08291L252.133 2.69016Z" fill="#FEE900"/>
<path d="M249.558 8.90611L252.686 10.0657V7.74775L249.558 8.90611Z" fill="#FEE900"/>
<path d="M252.133 15.1233L255.165 13.7305L253.526 12.091L252.133 15.1233Z" fill="#FEE900"/>
<path d="M258.349 17.698L259.508 14.5702H257.19L258.349 17.698Z" fill="#FEE900"/>
<path d="M264.566 15.1233L263.173 12.091L261.534 13.7305L264.566 15.1233Z" fill="#FEE900"/>
<path d="M267.141 8.90611L264.013 7.74775V10.0657L267.141 8.90611Z" fill="#FEE900"/>
<path d="M264.566 2.69016L261.534 4.08291L263.173 5.72248L264.566 2.69016Z" fill="#FEE900"/>
</g>
<defs>
<clipPath id="clip0_51_149">
<rect width="252.17" height="19.9249" fill="white" transform="translate(0 15.9596)"/>
</clipPath>
<clipPath id="clip1_51_149">
<rect width="17.5825" height="17.5825" fill="white" transform="translate(249.558 0.115475)"/>
</clipPath>
</defs>
</svg>
