<svg width="306" height="312" viewBox="0 0 306 312" fill="none" xmlns="http://www.w3.org/2000/svg">
<path opacity="0.04" d="M245.064 162.243V172.15H291.296V311.946H137.189V162.243C137.189 58.7718 179.018 0.431641 263.777 0.431641C267.079 0.431641 286.892 2.6332 290.195 4.83469L305.605 102.802C301.202 100.601 295.699 100.601 289.094 100.601C258.273 100.601 245.064 116.011 245.064 162.243ZM24.9121 162.243V172.15H71.144V311.946H-82.9622V162.243C-82.9622 58.7718 -41.1334 0.431641 43.625 0.431641C46.9273 0.431641 66.7409 2.6332 70.0432 4.83469L85.4538 102.802C81.0508 100.601 75.547 100.601 68.9424 100.601C38.1212 100.601 24.9121 116.011 24.9121 162.243Z" fill="#0F0F12"/>
</svg>
